# xmcd
#
# Track frame offsets: 
#        150
#        27846
#        50775
#        77685
#        102646
#        133597
#        156110
#        176836
#        208984
#        237956
#        266124
#        287462
#        312699
#        332307
#
# Disc length: 4688 seconds
#
# Revision: 0
# Processed by: cddbd v1.5.2PL0 Copyright (c) Steve Scherf et al.
# Submitted via: ExactAudioCopy v0.95b4
#
DISCID=d0124e0e
DTITLE=INKA'S SPIRIT - SPIRITU Vol. III
DYEAR=2007
DGENRE=Native American
TTITLE0=Nina tusuy
TTITLE1=Allin gampy
TTITLE2=Paway anka
TTITLE3=Bufalo blanco
TTITLE4=Puyumuyumuwan
TTITLE5=Wayankuy
TTITLE6=Kanela waxta
TTITLE7=Ritinan
TTITLE8=Condor pawan
TTITLE9=Relampaga
TTITLE10=Puka ussu
TTITLE11=Aviv tusuy
TTITLE12=Chaskay
TTITLE13=Zisary lucero
EXTD=
EXTT0=
EXTT1=
EXTT2=
EXTT3=
EXTT4=
EXTT5=
EXTT6=
EXTT7=
EXTT8=
EXTT9=
EXTT10=
EXTT11=
EXTT12=
EXTT13=
PLAYORDER=
